#!OML:ASF E:/inclinewalkrobotboard/Project1/Captureday1/Session1/subject1.ASF
:FULLY-SPECIFIED
:DEGREES
1
root 0 0 0 1.323634134844215 -3.498597109967612 1.7957617339978793
lowerback 11.929786400293803 0.8693807710884355 -0.08135513010607442
upperback -4.325407351844951 1.0927620892250463 -0.5726921785012694
thorax -11.407899011558758 0.5024194320144126 -0.8087086255573718
lowerneck -6.332624742866498 1.54055831628763 4.473445096965199
upperneck 18.484918675502485 2.9999822535283687 -8.06529610247992
head 6.830740403287574 1.0952340387669026 -3.1209423715099187
rclavicle -2.9769853463976825E-16 -8.954481712593927E-16
rhumerus 19.381397634103273 14.051744007433657 -48.292552198425454
rradius 71.65384107484489
rwrist 26.599974039457912
rhand -33.89242941909028 -55.183685855060205
rfingers 7.125020000000012
rthumb -7.048272549953301 -85.01613243603012
lclavicle -2.763004474874873E-16 -8.627533672225949E-16
lhumerus 19.704675962221142 -11.943538962958035 45.71875827587566
lradius 68.85153225369176
lwrist -22.087255936713074
lhand -44.294424782946365 -67.9660975347545
lfingers 7.125020000000012
lthumb -17.09548330212833 -38.710218400874936
rfemur -23.827492684389043 -1.8549364298924509 17.52923550214874
rtibia 53.89194938072152
rfoot -27.292250433069306 -16.037582716945654
rtoes -16.98234336758842
lfemur -25.315928025682545 2.0812325940781977 -17.943433046281935
ltibia 52.782036868512016
lfoot -29.079843081562785 -3.7552561919780736
ltoes -18.767662303632598
2
root 0 0 0 -0.9850544964378055 -2.855087221522613 -0.6723100294291955
lowerback 11.032716769094817 0.5536219968263155 0.49387019586031017
upperback -1.3241141231814642 0.8662084675101358 0.7828994662951443
thorax -7.6001519418676935 0.4087625168337152 0.36841600258775076
lowerneck -12.735333921795513 -1.1718931556931533 0.5455774453596207
upperneck 18.960700251681075 -1.085754177044845 -2.822269754123056
head 8.07600774002715 -0.6827321397211924 -1.170229969611417
rclavicle -5.261901404433049E-16 -6.525094972692054E-16
rhumerus 2.5078273568761844 2.892625226157664 -58.366341955799626
rradius 56.11305607665966
rwrist 18.92030012130312
rhand -28.278278775207077 -28.32581102039211
rfingers 7.125019999999939
rthumb -1.8202710405659515 -58.47078889813497
lclavicle -3.442523271811017E-16 -7.89504785984587E-16
lhumerus 12.291753456931243 -10.208026896784355 51.03451811779185
lradius 63.1766301194029
lwrist -18.17244474700518
lhand -41.78568078405367 -54.92613182386688
lfingers 7.12501999999998
lthumb -14.69443151832103 -25.470788803286478
rfemur -22.05731607458154 -0.6837259966336329 19.04137324608377
rtibia 51.253660132001535
rfoot -23.86037095264611 -14.409884101802321
rtoes -13.428230769566827
lfemur -25.93320156356833 2.2519022917953766 -17.89710610793207
ltibia 53.68551530136992
lfoot -30.034090992855365 -3.82314386172423
ltoes -19.442102250581275
3
root 0 0 0 -0.7516790294304956 -2.9362665043438216 -0.44867664900810444
lowerback 11.122407090425389 0.5935699047606843 0.45703695953927753
upperback -1.6211636914149303 0.898008175691138 0.6453894821749886
thorax -7.9782434369679915 0.4200247871709379 0.24118780675831264
lowerneck -12.091606458815443 -0.9114602345298588 0.9335221306390585
upperneck 18.910988074543578 -0.6812656737667728 -3.352526466536765
head 7.954959016791041 -0.5039681320982523 -1.363735313753864
rclavicle -5.268437461052657E-16 -6.613351775946043E-16
rhumerus 2.728024817354237 3.051221082735985 -58.249592961968446
rradius 56.32415952701514
rwrist 18.970796509278454
rhand -28.335308654660043 -28.639962921945667
rfingers 7.125019999999939
rthumb -1.861767490020358 -58.7440930219922
lclavicle -4.0120318665578873E-16 -7.263365094240741E-16
lhumerus 5.705498002642631 -8.61587754144876 55.608476625198094
lradius 58.05307176716431
lwrist -14.760817795929757
lhand -39.59649309541055 -43.42218566833965
lfingers 7.125019999999951
lthumb -12.605478058791691 -13.961945155903475
rfemur -20.436064226539422 0.26507052309369605 20.33689588535619
rtibia 49.25269393126131
rfoot -21.017523741676662 -13.007576464509068
rtoes -10.376831399760754
lfemur -25.900834635921935 2.232682639907756 -17.86862672573757
ltibia 53.58088416768082
lfoot -29.908697007517738 -3.8147513768024766
ltoes -19.327742165326754
4
root 0 0 0 -0.5978007661091156 -2.995826166297149 -0.3044338351574225
lowerback 11.182344522455066 0.6246640507608088 0.43465090272204515
upperback -1.8207328087075592 0.9255329595633375 0.5539367986596532
thorax -8.22872420418471 0.4288433663875879 0.15155167842095363
lowerneck -11.66908603705348 -0.7420401709268444 1.1894736697302075
upperneck 18.88417364567319 -0.4167234040225649 -3.697403320638413
head 7.8753678532574956 -0.3860006199762392 -1.4915397587714185
rclavicle -5.034820337134985E-16 -6.768513846448789E-16
rhumerus 3.574740334556635 3.6101112326539724 -57.76036725317666
rradius 57.10084155737582
rwrist 19.337324443474767
rhand -28.60970797984443 -29.975221100048657
rfingers 7.125019999999942
rthumb -2.1167514205187743 -60.04913430168075
lclavicle -4.451796445095963E-16 -7.237127504636908E-16
lhumerus 3.2238277462202483 -8.013679489769219 57.320577597597534
lradius 56.13945698523173
lwrist -13.482650915189812
lhand -38.77986711140898 -39.134171694868556
lfingers 7.125019999999941
lthumb -11.818980959935798 -9.643292181332331
rfemur -19.836453297860757 0.6147901181578093 20.81409514647704
rtibia 48.52100894944145
rfoot -19.964126213645166 -12.491187943618606
rtoes -9.265126889522456
lfemur -25.874535575885965 2.222077352096447 -17.859412070427624
ltibia 53.51574619247478
lfoot -29.844510412266423 -3.8062664054190924
ltoes -19.26484240216754
5
root 0 0 0 -0.5965581801473839 -3.0105373892069203 -0.3156785209911922
lowerback 11.18308409236071 0.6334595826153387 0.4449977758142076
upperback -1.8252258291194567 0.9352810989681956 0.550363894255815
thorax -8.229967359362966 0.43092802799298513 0.14139007097169198
lowerneck -11.665711776717773 -0.7477014609813232 1.1915721595025268
upperneck 18.88503496610644 -0.4186734202097906 -3.697006988599865
head 7.8756603181392215 -0.38448606534112495 -1.491639070781925
rclavicle -5.227980659453348E-16 -6.5181418341533155E-16
rhumerus 2.1038815160428594 2.6453458362519555 -58.64590023728308
rradius 55.74273839722264
rwrist 18.657092542759692
rhand -28.117509625336222 -27.621686150041356
rfingers 7.125019999999936
rthumb -1.6538744838378898 -57.71458122873991
lclavicle -4.875247065786111E-16 -6.984128392233823E-16
lhumerus -0.3270448580363574 -7.153873704954583 59.79888644756307
lradius 53.39209487333987
lwrist -11.640773260892365
lhand -37.5963481049387 -32.9270505423074
lfingers 7.125019999999925
lthumb -10.68454362323025 -3.3956099436852085
rfemur -19.52753614291427 0.7894956292501247 21.05484515428394
rtibia 48.156323862945136
rfoot -19.434188874347033 -12.229716396904196
rtoes -8.705156220478969
lfemur -25.728523912118007 2.1815168105689793 -17.86921332405067
ltibia 53.290322386259106
lfoot -29.60594053429609 -3.787744088085285
ltoes -19.098861657543647
